<?xml version="1.0" encoding="utf-8"?>
<!-- Generator: Adobe Illustrator 24.0.1, SVG Export Plug-In . SVG Version: 6.00 Build 0)  -->
<svg version="1.1" id="Capa_1" xmlns="http://www.w3.org/2000/svg" xmlns:xlink="http://www.w3.org/1999/xlink" x="0px" y="0px"
	 viewBox="0 0 29 55" style="enable-background:new 0 0 29 55;" xml:space="preserve">
<style type="text/css">
	.st0{fill:#FFFFFF;}
</style>
<path class="st0" d="M14.5,47.8c0-4-3.2-7.2-7.3-7.2S0,43.7,0,47.8c0,4,3.2,7.2,7.2,7.2S14.5,51.8,14.5,47.8z"/>
<path class="st0" d="M29,47.8c0-4-3.2-7.2-7.3-7.2s-7.2,3.2-7.2,7.2c0,4,3.2,7.2,7.2,7.2S29,51.8,29,47.8z"/>
<path class="st0" d="M14.5,34.1c0-4-3.2-7.2-7.3-7.2S0,30.1,0,34.1c0,4,3.2,7.2,7.2,7.2S14.5,38.1,14.5,34.1z"/>
<path class="st0" d="M29,34.1c0-4-3.2-7.2-7.3-7.2s-7.2,3.2-7.2,7.2c0,4,3.2,7.2,7.2,7.2S29,38.1,29,34.1z"/>
<path class="st0" d="M14.5,20.3c0-4-3.2-7.2-7.3-7.2S0,16.2,0,20.3c0,4,3.2,7.2,7.2,7.2S14.5,24.3,14.5,20.3z"/>
<path class="st0" d="M29,20.3c0-4-3.2-7.2-7.3-7.2s-7.2,3.2-7.2,7.2c0,4,3.2,7.2,7.2,7.2S29,24.3,29,20.3z"/>
<path class="st0" d="M14.5,7.2c0-4-3.2-7.2-7.3-7.2S0,3.2,0,7.2c0,4,3.2,7.2,7.2,7.2S14.5,11.3,14.5,7.2z"/>
<path class="st0" d="M29,7.2c0-4-3.2-7.2-7.3-7.2s-7.2,3.2-7.2,7.2c0,4,3.2,7.2,7.2,7.2S29,11.3,29,7.2z"/>
</svg>
